<mxfile host="app.diagrams.net" modified="2020-03-21T08:32:24.672Z" agent="Mozilla/5.0 (Windows NT 10.0; Win64; x64; rv:74.0) Gecko/20100101 Firefox/74.0" etag="PTvw1iNvpDqtpkouC3SZ" version="12.8.8" type="github" pages="4">
  <diagram id="ytf-1EmNFGTQWpPhBcvl" name="Aufbau">
    <mxGraphModel dx="1422" dy="769" grid="1" gridSize="10" guides="1" tooltips="1" connect="1" arrows="1" fold="1" page="1" pageScale="1" pageWidth="827" pageHeight="1169" math="0" shadow="0">
      <root>
        <mxCell id="0" />
        <mxCell id="1" parent="0" />
        <mxCell id="KuomK3P-rj_dXZLmXiwE-8" style="edgeStyle=orthogonalEdgeStyle;rounded=0;orthogonalLoop=1;jettySize=auto;html=1;exitX=0.5;exitY=1;exitDx=0;exitDy=0;entryX=0.5;entryY=0;entryDx=0;entryDy=0;" parent="1" source="KuomK3P-rj_dXZLmXiwE-4" target="KuomK3P-rj_dXZLmXiwE-6" edge="1">
          <mxGeometry relative="1" as="geometry" />
        </mxCell>
        <mxCell id="KuomK3P-rj_dXZLmXiwE-4" value="Eingabe Frage: " style="rounded=0;whiteSpace=wrap;html=1;" parent="1" vertex="1">
          <mxGeometry x="295" y="30" width="250" height="100" as="geometry" />
        </mxCell>
        <mxCell id="KuomK3P-rj_dXZLmXiwE-6" value="Wissens - Datenbank (Fragen, Stichwörter)" style="rounded=0;whiteSpace=wrap;html=1;" parent="1" vertex="1">
          <mxGeometry x="360" y="230" width="120" height="60" as="geometry" />
        </mxCell>
        <mxCell id="KuomK3P-rj_dXZLmXiwE-9" value="Ja" style="rounded=0;whiteSpace=wrap;html=1;" parent="1" vertex="1">
          <mxGeometry x="90" y="510" width="120" height="60" as="geometry" />
        </mxCell>
        <mxCell id="KuomK3P-rj_dXZLmXiwE-10" value="Nein" style="rounded=0;whiteSpace=wrap;html=1;" parent="1" vertex="1">
          <mxGeometry x="590" y="510" width="120" height="60" as="geometry" />
        </mxCell>
        <mxCell id="KuomK3P-rj_dXZLmXiwE-11" value="Antwort enthalten?" style="rounded=0;whiteSpace=wrap;html=1;" parent="1" vertex="1">
          <mxGeometry x="360" y="390" width="120" height="60" as="geometry" />
        </mxCell>
        <mxCell id="KuomK3P-rj_dXZLmXiwE-12" value="" style="endArrow=classic;html=1;exitX=0.5;exitY=1;exitDx=0;exitDy=0;entryX=0.5;entryY=0;entryDx=0;entryDy=0;" parent="1" source="KuomK3P-rj_dXZLmXiwE-6" target="KuomK3P-rj_dXZLmXiwE-11" edge="1">
          <mxGeometry width="50" height="50" relative="1" as="geometry">
            <mxPoint x="390" y="390" as="sourcePoint" />
            <mxPoint x="440" y="340" as="targetPoint" />
          </mxGeometry>
        </mxCell>
        <mxCell id="KuomK3P-rj_dXZLmXiwE-13" value="" style="endArrow=classic;html=1;exitX=0.5;exitY=1;exitDx=0;exitDy=0;entryX=0.5;entryY=0;entryDx=0;entryDy=0;" parent="1" source="KuomK3P-rj_dXZLmXiwE-11" target="KuomK3P-rj_dXZLmXiwE-9" edge="1">
          <mxGeometry width="50" height="50" relative="1" as="geometry">
            <mxPoint x="390" y="390" as="sourcePoint" />
            <mxPoint x="440" y="340" as="targetPoint" />
          </mxGeometry>
        </mxCell>
        <mxCell id="KuomK3P-rj_dXZLmXiwE-14" value="" style="endArrow=classic;html=1;exitX=0.5;exitY=1;exitDx=0;exitDy=0;entryX=0.5;entryY=0;entryDx=0;entryDy=0;" parent="1" source="KuomK3P-rj_dXZLmXiwE-11" target="KuomK3P-rj_dXZLmXiwE-10" edge="1">
          <mxGeometry width="50" height="50" relative="1" as="geometry">
            <mxPoint x="390" y="390" as="sourcePoint" />
            <mxPoint x="440" y="340" as="targetPoint" />
          </mxGeometry>
        </mxCell>
        <mxCell id="KuomK3P-rj_dXZLmXiwE-15" value="Community beantwortet Frage mit Beweis" style="rounded=0;whiteSpace=wrap;html=1;" parent="1" vertex="1">
          <mxGeometry x="590" y="680" width="120" height="70" as="geometry" />
        </mxCell>
        <mxCell id="KuomK3P-rj_dXZLmXiwE-17" value="" style="endArrow=classic;html=1;exitX=0.5;exitY=1;exitDx=0;exitDy=0;entryX=0.5;entryY=0;entryDx=0;entryDy=0;" parent="1" source="KuomK3P-rj_dXZLmXiwE-10" target="KuomK3P-rj_dXZLmXiwE-15" edge="1">
          <mxGeometry width="50" height="50" relative="1" as="geometry">
            <mxPoint x="390" y="540" as="sourcePoint" />
            <mxPoint x="440" y="490" as="targetPoint" />
          </mxGeometry>
        </mxCell>
        <mxCell id="KuomK3P-rj_dXZLmXiwE-22" value="Antwort wird der Datenbank hinzugefügt" style="text;html=1;align=center;verticalAlign=middle;resizable=0;points=[];autosize=1;" parent="1" vertex="1">
          <mxGeometry x="580" y="360" width="230" height="20" as="geometry" />
        </mxCell>
        <mxCell id="KuomK3P-rj_dXZLmXiwE-25" value="" style="endArrow=classic;html=1;exitX=0.5;exitY=1;exitDx=0;exitDy=0;entryX=1;entryY=0.5;entryDx=0;entryDy=0;" parent="1" source="KuomK3P-rj_dXZLmXiwE-15" target="KuomK3P-rj_dXZLmXiwE-6" edge="1">
          <mxGeometry width="50" height="50" relative="1" as="geometry">
            <mxPoint x="390" y="480" as="sourcePoint" />
            <mxPoint x="440" y="430" as="targetPoint" />
            <Array as="points">
              <mxPoint x="650" y="800" />
              <mxPoint x="810" y="800" />
              <mxPoint x="810" y="260" />
            </Array>
          </mxGeometry>
        </mxCell>
      </root>
    </mxGraphModel>
  </diagram>
  <diagram id="iRRMoT2NWf_QB-69EImP" name="Datenbank">
    <mxGraphModel dx="1422" dy="769" grid="1" gridSize="10" guides="1" tooltips="1" connect="1" arrows="1" fold="1" page="1" pageScale="1" pageWidth="827" pageHeight="1169" math="0" shadow="0">
      <root>
        <mxCell id="EnMxJWWe04FooDxVWhdP-0" />
        <mxCell id="EnMxJWWe04FooDxVWhdP-1" parent="EnMxJWWe04FooDxVWhdP-0" />
        <mxCell id="Rd_o8mbJAQ4iN04CSc1N-4" value="&lt;table style=&quot;width: 100% ; height: 100% ; border-collapse: collapse&quot; width=&quot;100%&quot; cellpadding=&quot;4&quot; border=&quot;1&quot;&gt;&lt;tbody&gt;&lt;tr style=&quot;background-color: #a7c942 ; color: #ffffff ; border: 1px solid #98bf21&quot;&gt;&lt;th align=&quot;left&quot;&gt;Frage&lt;br&gt;&lt;/th&gt;&lt;th align=&quot;left&quot;&gt;Keywords&lt;br&gt;&lt;/th&gt;&lt;td&gt;Antworten&lt;br&gt;&lt;/td&gt;&lt;th align=&quot;left&quot;&gt;Quelle&lt;br&gt;&lt;/th&gt;&lt;td&gt;Upvotes&lt;br&gt;&lt;/td&gt;&lt;td&gt;Downvotes&lt;br&gt;&lt;/td&gt;&lt;td&gt;Seriös (ja/nein)&lt;br&gt;&lt;/td&gt;&lt;td&gt;&lt;br&gt;&lt;/td&gt;&lt;/tr&gt;&lt;tr style=&quot;border: 1px solid #98bf21&quot;&gt;&lt;td&gt;Value 1&lt;/td&gt;&lt;td&gt;Value 2&lt;/td&gt;&lt;td&gt;&lt;br&gt;&lt;/td&gt;&lt;td&gt;Value 3&lt;/td&gt;&lt;td&gt;&lt;br&gt;&lt;/td&gt;&lt;td&gt;&lt;br&gt;&lt;/td&gt;&lt;td&gt;&lt;br&gt;&lt;/td&gt;&lt;td&gt;&lt;br&gt;&lt;/td&gt;&lt;/tr&gt;&lt;tr style=&quot;background-color: #eaf2d3 ; border: 1px solid #98bf21&quot;&gt;&lt;td&gt;Value 4&lt;/td&gt;&lt;td&gt;Value 5&lt;/td&gt;&lt;td&gt;&lt;br&gt;&lt;/td&gt;&lt;td&gt;Value 6&lt;/td&gt;&lt;td&gt;&lt;br&gt;&lt;/td&gt;&lt;td&gt;&lt;br&gt;&lt;/td&gt;&lt;td&gt;&lt;br&gt;&lt;/td&gt;&lt;td&gt;&lt;br&gt;&lt;/td&gt;&lt;/tr&gt;&lt;tr style=&quot;border: 1px solid #98bf21&quot;&gt;&lt;td&gt;Value 7&lt;/td&gt;&lt;td&gt;Value 8&lt;/td&gt;&lt;td&gt;&lt;br&gt;&lt;/td&gt;&lt;td&gt;Value 9&lt;/td&gt;&lt;td&gt;&lt;br&gt;&lt;/td&gt;&lt;td&gt;&lt;br&gt;&lt;/td&gt;&lt;td&gt;&lt;br&gt;&lt;/td&gt;&lt;td&gt;&lt;br&gt;&lt;/td&gt;&lt;/tr&gt;&lt;tr style=&quot;background-color: #eaf2d3 ; border: 1px solid #98bf21&quot;&gt;&lt;td&gt;Value 10&lt;/td&gt;&lt;td&gt;Value 11&lt;/td&gt;&lt;td&gt;&lt;br&gt;&lt;/td&gt;&lt;td&gt;Value 12&lt;/td&gt;&lt;td&gt;&lt;br&gt;&lt;/td&gt;&lt;td&gt;&lt;br&gt;&lt;/td&gt;&lt;td&gt;&lt;br&gt;&lt;/td&gt;&lt;td&gt;&lt;br&gt;&lt;/td&gt;&lt;/tr&gt;&lt;/tbody&gt;&lt;/table&gt;" style="text;html=1;strokeColor=#c0c0c0;fillColor=#ffffff;overflow=fill;rounded=0;" vertex="1" parent="EnMxJWWe04FooDxVWhdP-1">
          <mxGeometry x="140" y="60" width="576" height="160" as="geometry" />
        </mxCell>
      </root>
    </mxGraphModel>
  </diagram>
  <diagram id="bksMwvq117fzm9fE_Aii" name="Eingabeprozess">
    <mxGraphModel dx="1422" dy="769" grid="1" gridSize="10" guides="1" tooltips="1" connect="1" arrows="1" fold="1" page="1" pageScale="1" pageWidth="827" pageHeight="1169" math="0" shadow="0">
      <root>
        <mxCell id="W80L4eISgKHy_RKvHzl_-0" />
        <mxCell id="W80L4eISgKHy_RKvHzl_-1" parent="W80L4eISgKHy_RKvHzl_-0" />
        <mxCell id="mEbs2kIHsga6i2tEmN45-3" style="edgeStyle=orthogonalEdgeStyle;rounded=0;orthogonalLoop=1;jettySize=auto;html=1;exitX=0.5;exitY=1;exitDx=0;exitDy=0;exitPerimeter=0;entryX=0.5;entryY=0;entryDx=0;entryDy=0;" edge="1" parent="W80L4eISgKHy_RKvHzl_-1" source="mEbs2kIHsga6i2tEmN45-1" target="mEbs2kIHsga6i2tEmN45-2">
          <mxGeometry relative="1" as="geometry" />
        </mxCell>
        <mxCell id="mEbs2kIHsga6i2tEmN45-1" value="User gibt Frage ein" style="strokeWidth=2;html=1;shape=mxgraph.flowchart.start_2;whiteSpace=wrap;" vertex="1" parent="W80L4eISgKHy_RKvHzl_-1">
          <mxGeometry x="350" y="50" width="100" height="100" as="geometry" />
        </mxCell>
        <mxCell id="mEbs2kIHsga6i2tEmN45-8" style="edgeStyle=orthogonalEdgeStyle;rounded=0;orthogonalLoop=1;jettySize=auto;html=1;exitX=0.5;exitY=1;exitDx=0;exitDy=0;" edge="1" parent="W80L4eISgKHy_RKvHzl_-1" source="mEbs2kIHsga6i2tEmN45-2" target="mEbs2kIHsga6i2tEmN45-7">
          <mxGeometry relative="1" as="geometry" />
        </mxCell>
        <mxCell id="mEbs2kIHsga6i2tEmN45-2" value="Website filtert Keywords aus der Frage und gibt Liste an passenden Fragen aus" style="rounded=1;whiteSpace=wrap;html=1;absoluteArcSize=1;arcSize=14;strokeWidth=2;" vertex="1" parent="W80L4eISgKHy_RKvHzl_-1">
          <mxGeometry x="350" y="210" width="100" height="100" as="geometry" />
        </mxCell>
        <mxCell id="mEbs2kIHsga6i2tEmN45-19" style="edgeStyle=orthogonalEdgeStyle;rounded=0;orthogonalLoop=1;jettySize=auto;html=1;exitX=1;exitY=0.5;exitDx=0;exitDy=0;entryX=1;entryY=0.5;entryDx=0;entryDy=0;" edge="1" parent="W80L4eISgKHy_RKvHzl_-1" source="mEbs2kIHsga6i2tEmN45-4" target="mEbs2kIHsga6i2tEmN45-17">
          <mxGeometry relative="1" as="geometry" />
        </mxCell>
        <mxCell id="mEbs2kIHsga6i2tEmN45-4" value="Wissensdatenbank" style="shape=internalStorage;whiteSpace=wrap;html=1;dx=15;dy=15;rounded=1;arcSize=8;strokeWidth=2;" vertex="1" parent="W80L4eISgKHy_RKvHzl_-1">
          <mxGeometry x="600" y="222.5" width="190" height="75" as="geometry" />
        </mxCell>
        <mxCell id="mEbs2kIHsga6i2tEmN45-13" style="edgeStyle=orthogonalEdgeStyle;rounded=0;orthogonalLoop=1;jettySize=auto;html=1;exitX=1;exitY=0.5;exitDx=0;exitDy=0;exitPerimeter=0;" edge="1" parent="W80L4eISgKHy_RKvHzl_-1" source="mEbs2kIHsga6i2tEmN45-7" target="mEbs2kIHsga6i2tEmN45-15">
          <mxGeometry relative="1" as="geometry">
            <mxPoint x="720" y="450" as="targetPoint" />
          </mxGeometry>
        </mxCell>
        <mxCell id="mEbs2kIHsga6i2tEmN45-14" value="Nein" style="text;html=1;align=center;verticalAlign=middle;resizable=0;points=[];labelBackgroundColor=#ffffff;" vertex="1" connectable="0" parent="mEbs2kIHsga6i2tEmN45-13">
          <mxGeometry x="-0.3007" y="-2" relative="1" as="geometry">
            <mxPoint as="offset" />
          </mxGeometry>
        </mxCell>
        <mxCell id="mEbs2kIHsga6i2tEmN45-18" value="Ja" style="edgeStyle=orthogonalEdgeStyle;rounded=0;orthogonalLoop=1;jettySize=auto;html=1;exitX=0.5;exitY=1;exitDx=0;exitDy=0;exitPerimeter=0;entryX=0.5;entryY=0;entryDx=0;entryDy=0;" edge="1" parent="W80L4eISgKHy_RKvHzl_-1" source="mEbs2kIHsga6i2tEmN45-7" target="mEbs2kIHsga6i2tEmN45-17">
          <mxGeometry relative="1" as="geometry" />
        </mxCell>
        <mxCell id="mEbs2kIHsga6i2tEmN45-7" value="Passende Frage gefunden?" style="strokeWidth=2;html=1;shape=mxgraph.flowchart.decision;whiteSpace=wrap;" vertex="1" parent="W80L4eISgKHy_RKvHzl_-1">
          <mxGeometry x="335" y="380" width="130" height="130" as="geometry" />
        </mxCell>
        <mxCell id="mEbs2kIHsga6i2tEmN45-12" value="" style="endArrow=classic;startArrow=classic;html=1;entryX=0;entryY=0.5;entryDx=0;entryDy=0;exitX=1;exitY=0.5;exitDx=0;exitDy=0;" edge="1" parent="W80L4eISgKHy_RKvHzl_-1" source="mEbs2kIHsga6i2tEmN45-2" target="mEbs2kIHsga6i2tEmN45-4">
          <mxGeometry width="50" height="50" relative="1" as="geometry">
            <mxPoint x="390" y="450" as="sourcePoint" />
            <mxPoint x="440" y="400" as="targetPoint" />
          </mxGeometry>
        </mxCell>
        <mxCell id="mEbs2kIHsga6i2tEmN45-16" style="edgeStyle=orthogonalEdgeStyle;rounded=0;orthogonalLoop=1;jettySize=auto;html=1;exitX=0.5;exitY=0;exitDx=0;exitDy=0;entryX=0.5;entryY=1;entryDx=0;entryDy=0;" edge="1" parent="W80L4eISgKHy_RKvHzl_-1" source="mEbs2kIHsga6i2tEmN45-15" target="mEbs2kIHsga6i2tEmN45-4">
          <mxGeometry relative="1" as="geometry" />
        </mxCell>
        <mxCell id="mEbs2kIHsga6i2tEmN45-15" value="Frage wird in Wissensdatenbank eingespeichert" style="rounded=1;whiteSpace=wrap;html=1;absoluteArcSize=1;arcSize=14;strokeWidth=2;" vertex="1" parent="W80L4eISgKHy_RKvHzl_-1">
          <mxGeometry x="637.5" y="395" width="115" height="100" as="geometry" />
        </mxCell>
        <mxCell id="mEbs2kIHsga6i2tEmN45-21" style="edgeStyle=orthogonalEdgeStyle;rounded=0;orthogonalLoop=1;jettySize=auto;html=1;exitX=0.5;exitY=1;exitDx=0;exitDy=0;entryX=0.5;entryY=0;entryDx=0;entryDy=0;" edge="1" parent="W80L4eISgKHy_RKvHzl_-1" source="mEbs2kIHsga6i2tEmN45-17" target="mEbs2kIHsga6i2tEmN45-20">
          <mxGeometry relative="1" as="geometry" />
        </mxCell>
        <mxCell id="mEbs2kIHsga6i2tEmN45-17" value="Antworten werden ausgegeben" style="rounded=1;whiteSpace=wrap;html=1;absoluteArcSize=1;arcSize=14;strokeWidth=2;" vertex="1" parent="W80L4eISgKHy_RKvHzl_-1">
          <mxGeometry x="350" y="584.5" width="100" height="100" as="geometry" />
        </mxCell>
        <mxCell id="mEbs2kIHsga6i2tEmN45-20" value="Upvote System" style="rounded=1;whiteSpace=wrap;html=1;absoluteArcSize=1;arcSize=14;strokeWidth=2;" vertex="1" parent="W80L4eISgKHy_RKvHzl_-1">
          <mxGeometry x="350" y="760" width="100" height="100" as="geometry" />
        </mxCell>
      </root>
    </mxGraphModel>
  </diagram>
  <diagram id="EpiTX0RSyBgfU8P9Eqm8" name="Verbesserungsmöglichkeiten">
    <mxGraphModel dx="1422" dy="769" grid="1" gridSize="10" guides="1" tooltips="1" connect="1" arrows="1" fold="1" page="1" pageScale="1" pageWidth="827" pageHeight="1169" math="0" shadow="0">
      <root>
        <mxCell id="e07CB96fkyKl5EtC5IV4-0" />
        <mxCell id="e07CB96fkyKl5EtC5IV4-1" parent="e07CB96fkyKl5EtC5IV4-0" />
      </root>
    </mxGraphModel>
  </diagram>
</mxfile>
